<?xml version="1.0" encoding="UTF-8" standalone="no"?>
<svg width="500" height="150" viewBox="0 0 500 150" xmlns="http://www.w3.org/2000/svg">
  <style>
    .title { font-family: 'Cormorant Garamond', serif; font-size: 48px; fill: #2c2c2c; }
    .tagline { font-family: 'Cormorant Garamond', serif; font-style: italic; font-size: 22px; fill: #8a6d3b; }
    .accent { fill: #c6a147; }
    .icon { fill: #c6a147; }
  </style>
  
  <!-- Decorative Sanskrit OM Symbol -->
  <path class="icon" d="M60,75 C60,53.4 77.4,36 99,36 C120.6,36 138,53.4 138,75 C138,96.6 120.6,114 99,114 C77.4,114 60,96.6 60,75 Z M99,46 C83,46 70,59 70,75 C70,91 83,104 99,104 C115,104 128,91 128,75 C128,59 115,46 99,46 Z" />
  <path class="icon" d="M99,55 C94,55 90,59 90,64 C90,69 94,73 99,73 C104,73 108,69 108,64 C108,59 104,55 99,55 Z" />
  <path class="icon" d="M99,85 L99,100 M85,70 L70,85 M113,70 L128,85" />
  
  <!-- Text Elements -->
  <text x="160" y="80" class="title">Your <tspan class="accent">Sanskrit</tspan> Teacher</text>
  <text x="165" y="110" class="tagline">Premium Instruction by PhD Scholars</text>
</svg>