<?xml version="1.0" encoding="UTF-8" standalone="no"?>
<svg xmlns="http://www.w3.org/2000/svg" width="500" height="243" viewBox="0 0 500 243">
  <!-- Vyoma Logo in White -->
  <g fill="#FFFFFF">
    <!-- Simplified recreation of the Vyoma logo shape in white -->
    <path d="M80,121.5 C80,87.5 107.5,60 141.5,60 C175.5,60 203,87.5 203,121.5 C203,155.5 175.5,183 141.5,183 C107.5,183 80,155.5 80,121.5 Z M141.5,78 C117.5,78 98,97.5 98,121.5 C98,145.5 117.5,165 141.5,165 C165.5,165 185,145.5 185,121.5 C185,97.5 165.5,78 141.5,78 Z"/>
    
    <!-- Letter "V" -->
    <path d="M235,100 L250,140 L265,100 L285,100 L260,160 L240,160 L215,100 Z"/>
    
    <!-- Letter "Y" -->
    <path d="M295,100 L315,100 L325,120 L335,100 L355,100 L335,135 L335,160 L315,160 L315,135 Z"/>
    
    <!-- Letter "O" -->
    <path d="M365,100 C350,100 340,110 340,130 C340,150 350,160 365,160 C380,160 390,150 390,130 C390,110 380,100 365,100 Z M365,115 C370,115 375,120 375,130 C375,140 370,145 365,145 C360,145 355,140 355,130 C355,120 360,115 365,115 Z"/>
    
    <!-- Letter "M" -->
    <path d="M400,100 L420,100 L420,135 L430,115 L440,135 L440,100 L460,100 L460,160 L440,160 L430,140 L420,160 L400,160 Z"/>
    
    <!-- Letter "A" -->
    <path d="M470,100 L490,100 L510,160 L490,160 L485,145 L475,145 L470,160 L450,160 Z M480,130 L484,115 L488,130 Z"/>
  </g>
</svg>