<?xml version="1.0" encoding="UTF-8" standalone="no"?>
<svg xmlns="http://www.w3.org/2000/svg" width="512" height="512" viewBox="0 0 512 512">
  <defs>
    <linearGradient id="goldGradient" x1="0%" y1="0%" x2="100%" y2="100%">
      <stop offset="0%" style="stop-color:#d4af37;stop-opacity:1" />
      <stop offset="100%" style="stop-color:#c6a147;stop-opacity:1" />
    </linearGradient>
  </defs>
  
  <!-- Main Circle -->
  <circle cx="256" cy="256" r="220" fill="url(#goldGradient)" />
  
  <!-- Devanagari व्योम (Vyoma) -->
  <g fill="white">
    <!-- व -->
    <path d="M160,220 C160,200 172,185 190,185 C205,185 215,195 215,210 C215,230 190,250 160,252 L160,265 C200,265 235,240 235,210 C235,185 215,165 190,165 C160,165 140,190 140,220 L140,265 C140,280 150,290 170,290 L170,270 C160,270 160,265 160,260 L160,220 Z" />
    
    <!-- ् (Virama) -->
    <path d="M235,230 L255,230 L255,210 L235,210 Z" />
    
    <!-- य -->
    <path d="M260,220 C260,200 272,185 290,185 C305,185 315,195 315,210 C315,230 290,250 260,252 L260,265 C300,265 335,240 335,210 C335,185 315,165 290,165 C260,165 240,190 240,220 L240,265 C240,280 250,290 270,290 L270,270 C260,270 260,265 260,260 L260,220 Z" />
    
    <!-- ो (O vowel sign) -->
    <path d="M340,220 L340,290 L360,290 L360,260 C375,260 385,250 385,235 C385,220 375,210 360,210 C355,210 350,212 345,215 L345,195 L325,195 L325,220 L340,220 Z M360,240 L360,230 C365,230 365,235 365,240 C365,245 365,250 360,250 L360,240 Z" />
    
    <!-- म -->
    <path d="M390,220 L390,265 C390,280 400,290 420,290 L420,270 C410,270 410,265 410,260 L410,220 C410,200 422,185 440,185 C455,185 465,195 465,210 C465,230 440,250 410,252 L410,265 C450,265 485,240 485,210 C485,185 465,165 440,165 C410,165 390,190 390,220 Z" />
  </g>
</svg>